<svg xmlns="http://www.w3.org/2000/svg" xmlns:xlink="http://www.w3.org/1999/xlink" version="1.1" width="200" height="200" xml:space="preserve" style=""><rect id="backgroundrect" width="100%" height="100%" x="0" y="0" fill="none" stroke="none"/>
<desc>Created with Fabric.js 5.2.4</desc>
<defs>
</defs>
<g class="currentLayer" style=""><title>Layer 1</title><rect x="0" y="0" width="100%" height="100%" fill="transparent" id="svg_1"/><g id="7839be30-050b-4aa9-97ee-dcccbaecbb86" class="">
<rect style="stroke: none; stroke-width: 1; stroke-dasharray: none; stroke-linecap: butt; stroke-dashoffset: 0; stroke-linejoin: miter; stroke-miterlimit: 4; fill: rgb(255,255,255); fill-rule: nonzero; opacity: 1; visibility: hidden;" vector-effect="non-scaling-stroke" x="-98.44137573242188" y="-99.22068786621094" rx="0" ry="0" width="200" height="200" transform="matrix(1,0,0,1,100,100) " stroke-width="0" id="svg_2"/>
</g><g id="0421ad41-007a-4340-b6c2-4ae6ff731838">
</g><g id="svg_3" class="">
<g style="" vector-effect="non-scaling-stroke" stroke-width="0" id="svg_4">
		<g stroke-width="0" id="svg_5">
<path style="stroke: none; stroke-width: 1; stroke-dasharray: none; stroke-linecap: butt; stroke-dashoffset: 0; stroke-linejoin: miter; stroke-miterlimit: 4; fill: rgb(20,112,184); fill-rule: evenodd; opacity: 1;" vector-effect="non-scaling-stroke" d="M102.95338362681946,47.15556329076874 C134.1716157556661,47.15556329076874 159.48079642369825,72.4647439588009 159.48079642369825,103.68587552408562 C159.48079642369825,134.90410765293225 134.1716157556661,160.2132883209644 102.95338362681946,160.2132883209644 C71.73225206153472,160.2132883209644 46.42307139350258,134.90410765293225 46.42307139350258,103.68587552408562 C46.42307139350258,72.4647439588009 71.73225206153472,47.15556329076874 102.95338362681946,47.15556329076874 z" stroke-linecap="round" stroke-width="0" id="svg_6"/>
</g>
		<g stroke-width="0" id="svg_7">
<path style="stroke: none; stroke-width: 1; stroke-dasharray: none; stroke-linecap: butt; stroke-dashoffset: 0; stroke-linejoin: miter; stroke-miterlimit: 4; fill: rgb(187,222,251); fill-rule: nonzero; opacity: 1;" vector-effect="non-scaling-stroke" d="M100.11774080727056,72.87646393300878 L100.11774080727056,57.0223454895674 C97.07913142015889,59.701424758356694 94.2985718760367,62.36600684495558 91.7702633020278,65.0189911858021 C89.26804965596159,67.64588059870589 87.00938867069439,70.26407170229541 84.99717978266438,72.87646393300878 L100.11774080727056,72.87646393300878 zM143.32224317115504,134.58806908118115 L128.7496756333466,134.58806908118115 C123.75394665052843,141.7873697569429 117.46506901632506,148.16033104785072 110.81666126379926,153.84032703005659 L111.3907496785398,153.7504445004761 C123.87862241736607,151.72083899381744 135.6706304110523,144.66361070352184 143.32224317115504,134.5880690811812 zM95.107514642262,153.8345281571804 C88.4649057626124,148.16033104785072 82.17022925553279,141.7815708840667 77.18319858202892,134.58806908118115 L62.64252484503943,134.58806908118115 C70.33183027883726,144.71290112296927 82.03395574294285,151.70054293875086 94.56821946477844,153.7475450640379 L95.10751464226209,153.8345281571804 zM62.58453611627776,72.87646393300878 L78.0211357126351,72.87646393300878 C80.34358429954008,69.55370977496493 83.02846244120556,66.21935787116874 86.07866957406952,62.876307658058295 C88.91141897407726,59.771011232870705 92.0631063822742,56.65411706193079 95.53663123509843,53.528524581676606 L94.71609072312071,53.65030091207612 C82.17602812840896,55.60162163490641 70.27384155007559,62.74003414546834 62.58453611627776,72.87646393300878 zM110.41363959890563,53.57201612824785 C116.85908680076557,59.35349238578665 122.9334061385508,65.75254860463727 127.87694526548347,72.87646393300878 L143.29034937033612,72.87646393300878 C135.3053014198537,62.374705154269805 123.42341089658692,55.52623628751624 110.41363959890563,53.57201612824785 zM105.78034017084792,57.0223454895674 L105.78034017084792,72.87646393300878 L120.90090119545417,72.87646393300878 C118.8886923074241,70.26407170229541 116.632930758595,67.64588059870589 114.13071711252883,65.0189911858021 C111.60240853851985,62.36600684495558 108.8189495579596,59.701424758356694 105.78034017084792,57.0223454895674 zM105.78034017084792,134.58806908118115 L105.78034017084792,150.67704187610735 C111.57631361057713,145.86397738888843 117.08234340649801,140.52901434281458 121.7330394531842,134.58806908118115 L105.78034017084792,134.58806908118115 zM100.11774080727056,150.67994131254542 L100.11774080727056,134.58806908118115 L84.16214208849627,134.58806908118115 C88.78964264367775,140.54351152500496 94.31306905822709,145.88137400751697 100.11774080727056,150.67994131254542 z" stroke-linecap="round" stroke-width="0" id="svg_8"/>
</g>
		<g stroke-width="0" id="svg_9">
<path style="stroke: none; stroke-width: 1; stroke-dasharray: none; stroke-linecap: butt; stroke-dashoffset: 0; stroke-linejoin: miter; stroke-miterlimit: 4; fill: rgb(20,112,184); fill-rule: nonzero; opacity: 1;" vector-effect="non-scaling-stroke" d="M40.383548124455245,73.36936706567762 L165.5116270463932,73.36936706567762 C171.91648213811993,73.36936706567762 177.1731604003656,78.62604532792328 177.1731604003656,85.03090041965007 L177.1731604003656,122.43363047092913 C177.1731604003656,128.82108894402742 171.89908551949148,134.09516382490153 165.5116270463932,134.09516382490153 L40.383548124455245,134.09516382490153 C33.96709528697613,134.09516382490153 28.722014770482808,128.85008330840822 28.722014770482808,122.43363047092913 L28.722014770482808,85.03090041965007 C28.722014770482808,78.60864870929478 33.96129641409996,73.36936706567762 40.383548124455245,73.36936706567762 z" stroke-linecap="round" stroke-width="0" id="svg_10"/>
</g>
		<g stroke-width="0" id="svg_11">
<path style="stroke: none; stroke-width: 1; stroke-dasharray: none; stroke-linecap: butt; stroke-dashoffset: 0; stroke-linejoin: miter; stroke-miterlimit: 4; fill: rgb(255,255,255); fill-rule: evenodd; opacity: 1;" vector-effect="non-scaling-stroke" d="M40.383548124455245,78.56225772628544 L165.5116270463932,78.56225772628544 C169.06923555592178,78.56225772628544 171.98026973975777,81.48488965587377 171.98026973975777,85.03090041965007 L171.98026973975777,122.43363047092913 C171.98026973975777,125.97964123470547 169.05763781016952,128.90227316429372 165.5116270463932,128.90227316429372 L40.383548124455245,128.90227316429372 C36.83753736067895,128.90227316429372 33.91490543109062,125.99123898045781 33.91490543109062,122.43363047092913 L33.91490543109062,85.03090041965007 C33.91490543109062,81.47329191012145 36.82883905136468,78.56225772628544 40.383548124455245,78.56225772628544 z" stroke-linecap="round" stroke-width="0" id="svg_12"/>
</g>
		<g stroke-width="0" id="svg_13">
<path style="stroke: none; stroke-width: 1; stroke-dasharray: none; stroke-linecap: butt; stroke-dashoffset: 0; stroke-linejoin: miter; stroke-miterlimit: 4; fill: rgb(31,54,71); fill-rule: nonzero; opacity: 1;" vector-effect="non-scaling-stroke" d="M71.44521068564536,90.20349502519133 L80.49145237246634,90.20349502519133 L76.25247629998805,117.25813642894985 L64.95337250077608,117.25813642894985 L62.96145966781262,107.30147170057057 L62.44246054539565,107.30147170057057 L60.494039259003415,117.25813642894985 L49.19783489622952,117.25813642894985 L44.95595938731316,90.20349502519133 L54.002201074134135,90.20349502519133 L56.03470601723079,105.31245830404515 L56.29565529665831,105.31245830404515 L59.412549467598225,90.20349502519124 L66.03486229218129,90.20349502519124 L69.10826491654996,105.31245830404515 L69.36921419597746,105.31245830404515 L71.44521068564536,90.20349502519124 zM100.29750268101574,107.04342185758114 L91.63978547689797,107.04342185758114 L91.63978547689797,110.79239317202325 L102.24592396740798,110.79239317202325 L102.24592396740798,117.25813642894985 L82.9820682727802,117.25813642894985 L82.9820682727802,90.20349502519133 L102.02846623455167,90.20349502519133 L100.94697644314647,96.67213771855592 L91.63978547689797,96.67213771855592 L91.63978547689797,100.76614196912999 L100.29750268101574,100.76614196912999 L100.29750268101574,107.04342185758114 zM106.24714625196344,117.25813642894985 L106.24714625196344,90.20349502519133 L120.27461973941209,90.20349502519133 C122.86961535149695,90.20349502519133 124.72525467187049,90.71089640185598 125.83573882765654,91.71990028230907 C126.9462229834426,92.72890416276216 127.5029147795546,94.20181787330866 127.5029147795546,96.1357419775104 C127.5029147795546,98.06966608171224 127.14918353410843,99.5599764108872 126.441721043216,100.61537127434966 C125.73425855232358,101.66786670137401 124.78904227350833,102.35213370076178 123.60607220677016,102.67107170895099 L123.60607220677016,102.93202098837853 C127.09699367822293,103.53800320393799 128.84535385038737,105.9184405196047 128.84535385038737,110.07333293537849 C128.84535385038737,112.23921195462702 128.26836599920867,113.97597438103915 127.11439029685144,115.28941908749104 C125.95751515805603,116.60286379394293 124.18306005794886,117.25813642894977 121.78812556009177,117.25813642894977 L106.24714625196336,117.25813642894977 zM118.28270690644862,106.48093118859293 L114.44675249886393,106.48093118859293 L114.44675249886393,110.89677288379428 L118.23921535987736,110.89677288379428 C119.45117979099629,110.89677288379428 120.05716200655584,110.16031602852107 120.05716200655584,108.68740231797457 C120.05716200655584,107.21738804386615 119.46277753674863,106.48093118859285 118.28270690644862,106.48093118859285 zM117.6332331443179,96.1357419775104 L114.44675249886393,96.1357419775104 L114.44675249886393,100.16015975357053 L117.58974159774664,100.16015975357053 C118.68572857134222,100.16015975357053 119.23372205814007,99.49038993637322 119.23372205814007,98.14795086554047 C119.23372205814007,96.8055117947078 118.70022575353269,96.1357419775104 117.6332331443179,96.1357419775104 zM151.6349242537248,99.72814372429605 L151.6349242537248,96.4546799856996 C150.76799275873785,96.30970816379548 149.36756495914338,96.24012168928144 147.43654029137969,96.24012168928144 C145.50261618717786,96.24012168928144 143.0931845071304,96.54166307884218 140.2053458147991,97.14764529440164 L139.08036447682267,91.2009011598921 C142.6002803126562,90.10201474985837 146.00711812740445,89.55402126306053 149.29797848462943,89.55402126306053 C152.124929011761,89.55402126306053 154.1748305734861,89.72798744934559 155.44478373336676,90.0730203854775 C156.71473689324742,90.42095275804756 157.6512548627484,90.83847160513157 158.25723707830787,91.32847636316777 C159.58517896695014,92.45635713758227 160.24914991127133,94.15832632673741 160.24914991127133,96.43728336707115 C160.24914991127133,99.32222262296438 159.05168266234278,101.40111854907033 156.6567481644857,102.67107170895099 L156.6567481644857,102.8885294418073 C159.5126930559981,104.07149950854537 160.9421152199733,106.21998190916537 160.9421152199733,109.3368760801053 C160.9421152199733,110.86777851941349 160.70436143205046,112.17252491655114 160.22885385620475,113.25401470795632 C159.75044684392094,114.33550449936152 159.15316293767575,115.1734416299677 158.43120326459294,115.76492666333678 C157.70924359151005,116.35641169670578 156.75822843981865,116.82612039967537 155.57235893664244,117.17115333580728 C153.81240101872567,117.66405753028155 151.33918173704026,117.90761019108058 148.14980165514825,117.90761019108058 C144.96042157325624,117.90761019108058 141.7652426184881,117.5335828905678 138.5613653544057,116.78262885310411 L139.77332978552462,110.0994278633213 C142.5161966559517,110.76339880764246 144.83864524285676,111.09683399802205 146.74357498267773,111.09683399802205 C148.64850472249864,111.09683399802205 150.27798800070167,111.00985090487956 151.6349242537248,110.83588471859449 L151.6349242537248,107.60591252656937 L144.18917148072603,106.8694556712961 L144.18917148072603,100.592175782845 L151.6349242537248,99.72814372429605 z" stroke-linecap="round" stroke-width="0" id="svg_14"/>
</g>
</g>
</g></g></svg>